<svg version="1.1" xmlns="http://www.w3.org/2000/svg" xmlns:xlink="http://www.w3.org/1999/xlink" width="770.24926" height="384.38439" viewBox="0,0,770.24926,384.38439"><g transform="translate(42.61257,13.69364)"><g data-paper-data="{&quot;isPaintingLayer&quot;:true}" fill-rule="nonzero" stroke-linejoin="miter" stroke-miterlimit="10" stroke-dasharray="" stroke-dashoffset="0" style="mix-blend-mode: normal"><path d="M-11.08103,370.69074v-384.38438h660.66066v384.38439z" fill="#a75d2f" stroke="none" stroke-width="0" stroke-linecap="butt"/><path d="M-42.61255,62.88293v-9.00901h749.24925v9.00901z" fill="#965023" stroke="none" stroke-width="0" stroke-linecap="butt"/><path d="M-42.61255,133.88288v-9.00901h749.24925v9.00901z" fill="#965023" stroke="none" stroke-width="0" stroke-linecap="butt"/><path d="M-42.61255,204.88293v-9.00901h749.24925v9.00901z" fill="#965023" stroke="none" stroke-width="0" stroke-linecap="butt"/><path d="M-42.61257,284.88293v-9.00901h749.24925v9.00901z" fill="#965023" stroke="none" stroke-width="0" stroke-linecap="butt"/><path d="M-42.61255,357.88293v-9.00901h749.24925v9.00901z" fill="#965023" stroke="none" stroke-width="0" stroke-linecap="butt"/><path d="M-21.61256,4.50451v-9.00901h749.24925v9.00901z" fill="#965023" stroke="none" stroke-width="0" stroke-linecap="butt"/><path d="M20.94299,13.0662c0,-1.38071 1.11929,-2.5 2.5,-2.5c1.38071,0 2.5,1.11929 2.5,2.5c0,1.38071 -1.11929,2.5 -2.5,2.5c-1.38071,0 -2.5,-1.11929 -2.5,-2.5z" fill="#965023" stroke="none" stroke-width="0.5" stroke-linecap="butt"/><path d="M56.97903,28.08122c0,-1.38071 1.11929,-2.5 2.5,-2.5c1.38071,0 2.5,1.11929 2.5,2.5c0,1.38071 -1.11929,2.5 -2.5,2.5c-1.38071,0 -2.5,-1.11929 -2.5,-2.5z" fill="#965023" stroke="none" stroke-width="0.5" stroke-linecap="butt"/><path d="M19.44148,106.1593c0,-1.38071 1.11929,-2.5 2.5,-2.5c1.38071,0 2.5,1.11929 2.5,2.5c0,1.38071 -1.11929,2.5 -2.5,2.5c-1.38071,0 -2.5,-1.11929 -2.5,-2.5z" fill="#965023" stroke="none" stroke-width="0.5" stroke-linecap="butt"/><path d="M159.08113,91.14429c0,-1.38071 1.11929,-2.5 2.5,-2.5c1.38071,0 2.5,1.11929 2.5,2.5c0,1.38071 -1.11929,2.5 -2.5,2.5c-1.38071,0 -2.5,-1.11929 -2.5,-2.5z" fill="#965023" stroke="none" stroke-width="0.5" stroke-linecap="butt"/><path d="M49.47153,176.72989c0,-1.38071 1.11929,-2.5 2.5,-2.5c1.38071,0 2.5,1.11929 2.5,2.5c0,1.38071 -1.11929,2.5 -2.5,2.5c-1.38071,0 -2.5,-1.11929 -2.5,-2.5z" fill="#965023" stroke="none" stroke-width="0.5" stroke-linecap="butt"/><path d="M112.53459,146.69984c0,-1.38071 1.11929,-2.5 2.5,-2.5c1.38071,0 2.5,1.11929 2.5,2.5c0,1.38071 -1.11929,2.5 -2.5,2.5c-1.38071,0 -2.5,-1.11929 -2.5,-2.5z" fill="#965023" stroke="none" stroke-width="0.5" stroke-linecap="butt"/><path d="M47.97003,254.80797c0,-1.38071 1.11929,-2.5 2.5,-2.5c1.38071,0 2.5,1.11929 2.5,2.5c0,1.38071 -1.11929,2.5 -2.5,2.5c-1.38071,0 -2.5,-1.11929 -2.5,-2.5z" fill="#965023" stroke="none" stroke-width="0.5" stroke-linecap="butt"/><path d="M139.56161,232.28543c0,-1.38071 1.11929,-2.5 2.5,-2.5c1.38071,0 2.5,1.11929 2.5,2.5c0,1.38071 -1.11929,2.5 -2.5,2.5c-1.38071,0 -2.5,-1.11929 -2.5,-2.5z" fill="#965023" stroke="none" stroke-width="0.5" stroke-linecap="butt"/><path d="M31.4535,331.38453c0,-1.38071 1.11929,-2.5 2.5,-2.5c1.38071,0 2.5,1.11929 2.5,2.5c0,1.38071 -1.11929,2.5 -2.5,2.5c-1.38071,0 -2.5,-1.11929 -2.5,-2.5z" fill="#965023" stroke="none" stroke-width="0.5" stroke-linecap="butt"/><path d="M73.49552,298.3515c0,-1.38071 1.11929,-2.5 2.5,-2.5c1.38071,0 2.5,1.11929 2.5,2.5c0,1.38071 -1.11929,2.5 -2.5,2.5c-1.38071,0 -2.5,-1.11929 -2.5,-2.5z" fill="#965023" stroke="none" stroke-width="0.5" stroke-linecap="butt"/><path d="M159.08113,335.88905c0,-1.38071 1.11929,-2.5 2.5,-2.5c1.38071,0 2.5,1.11929 2.5,2.5c0,1.38071 -1.11929,2.5 -2.5,2.5c-1.38071,0 -2.5,-1.11929 -2.5,-2.5z" fill="#965023" stroke="none" stroke-width="0.5" stroke-linecap="butt"/><path d="M253.67574,229.28244c0,-1.38071 1.11929,-2.5 2.5,-2.5c1.38071,0 2.5,1.11929 2.5,2.5c0,1.38071 -1.11929,2.5 -2.5,2.5c-1.38071,0 -2.5,-1.11929 -2.5,-2.5z" fill="#965023" stroke="none" stroke-width="0.5" stroke-linecap="butt"/><path d="M135.05711,250.30346c0,-1.38071 1.11929,-2.5 2.5,-2.5c1.38071,0 2.5,1.11929 2.5,2.5c0,1.38071 -1.11929,2.5 -2.5,2.5c-1.38071,0 -2.5,-1.11929 -2.5,-2.5z" fill="#965023" stroke="none" stroke-width="0.5" stroke-linecap="butt"/><path d="M207.12918,326.88004c0,-1.38071 1.11929,-2.5 2.5,-2.5c1.38071,0 2.5,1.11929 2.5,2.5c0,1.38071 -1.11929,2.5 -2.5,2.5c-1.38071,0 -2.5,-1.11929 -2.5,-2.5z" fill="#965023" stroke="none" stroke-width="0.5" stroke-linecap="butt"/><path d="M309.23126,290.84398c0,-1.38071 1.11929,-2.5 2.5,-2.5c1.38071,0 2.5,1.11929 2.5,2.5c0,1.38071 -1.11929,2.5 -2.5,2.5c-1.38071,0 -2.5,-1.11929 -2.5,-2.5z" fill="#965023" stroke="none" stroke-width="0.5" stroke-linecap="butt"/><path d="M168.09014,326.88004c0,-1.38071 1.11929,-2.5 2.5,-2.5c1.38071,0 2.5,1.11929 2.5,2.5c0,1.38071 -1.11929,2.5 -2.5,2.5c-1.38071,0 -2.5,-1.11929 -2.5,-2.5z" fill="#965023" stroke="none" stroke-width="0.5" stroke-linecap="butt"/><path d="M223.64571,148.20135c0,-1.38071 1.11929,-2.5 2.5,-2.5c1.38071,0 2.5,1.11929 2.5,2.5c0,1.38071 -1.11929,2.5 -2.5,2.5c-1.38071,0 -2.5,-1.11929 -2.5,-2.5z" fill="#965023" stroke="none" stroke-width="0.5" stroke-linecap="butt"/><path d="M246.16824,77.63075c0,-1.38071 1.11929,-2.5 2.5,-2.5c1.38071,0 2.5,1.11929 2.5,2.5c0,1.38071 -1.11929,2.5 -2.5,2.5c-1.38071,0 -2.5,-1.11929 -2.5,-2.5z" fill="#965023" stroke="none" stroke-width="0.5" stroke-linecap="butt"/><path d="M133.5556,11.5647c0,-1.38071 1.11929,-2.5 2.5,-2.5c1.38071,0 2.5,1.11929 2.5,2.5c0,1.38071 -1.11929,2.5 -2.5,2.5c-1.38071,0 -2.5,-1.11929 -2.5,-2.5z" fill="#965023" stroke="none" stroke-width="0.5" stroke-linecap="butt"/><path d="M96.01808,100.15329c0,-1.38071 1.11929,-2.5 2.5,-2.5c1.38071,0 2.5,1.11929 2.5,2.5c0,1.38071 -1.11929,2.5 -2.5,2.5c-1.38071,0 -2.5,-1.11929 -2.5,-2.5z" fill="#965023" stroke="none" stroke-width="0.5" stroke-linecap="butt"/><path d="M267.18925,26.57972c0,-1.38071 1.11929,-2.5 2.5,-2.5c1.38071,0 2.5,1.11929 2.5,2.5c0,1.38071 -1.11929,2.5 -2.5,2.5c-1.38071,0 -2.5,-1.11929 -2.5,-2.5z" fill="#965023" stroke="none" stroke-width="0.5" stroke-linecap="butt"/><path d="M355.77785,88.14129c0,-1.38071 1.11929,-2.5 2.5,-2.5c1.38071,0 2.5,1.11929 2.5,2.5c0,1.38071 -1.11929,2.5 -2.5,2.5c-1.38071,0 -2.5,-1.11929 -2.5,-2.5z" fill="#965023" stroke="none" stroke-width="0.5" stroke-linecap="butt"/><path d="M255.17725,115.16832c0,-1.38071 1.11929,-2.5 2.5,-2.5c1.38071,0 2.5,1.11929 2.5,2.5c0,1.38071 -1.11929,2.5 -2.5,2.5c-1.38071,0 -2.5,-1.11929 -2.5,-2.5z" fill="#965023" stroke="none" stroke-width="0.5" stroke-linecap="butt"/><path d="M277.69974,193.24639c0,-1.38071 1.11929,-2.5 2.5,-2.5c1.38071,0 2.5,1.11929 2.5,2.5c0,1.38071 -1.11929,2.5 -2.5,2.5c-1.38071,0 -2.5,-1.11929 -2.5,-2.5z" fill="#965023" stroke="none" stroke-width="0.5" stroke-linecap="butt"/><path d="M336.25833,163.21633c0,-1.38071 1.11929,-2.5 2.5,-2.5c1.38071,0 2.5,1.11929 2.5,2.5c0,1.38071 -1.11929,2.5 -2.5,2.5c-1.38071,0 -2.5,-1.11929 -2.5,-2.5z" fill="#965023" stroke="none" stroke-width="0.5" stroke-linecap="butt"/><path d="M210.13218,175.22838c0,-1.38071 1.11929,-2.5 2.5,-2.5c1.38071,0 2.5,1.11929 2.5,2.5c0,1.38071 -1.11929,2.5 -2.5,2.5c-1.38071,0 -2.5,-1.11929 -2.5,-2.5z" fill="#965023" stroke="none" stroke-width="0.5" stroke-linecap="butt"/><path d="M400.82289,245.79896c0,-1.38071 1.11929,-2.5 2.5,-2.5c1.38071,0 2.5,1.11929 2.5,2.5c0,1.38071 -1.11929,2.5 -2.5,2.5c-1.38071,0 -2.5,-1.11929 -2.5,-2.5z" fill="#965023" stroke="none" stroke-width="0.5" stroke-linecap="butt"/><path d="M91.51356,170.72388c0,-1.38071 1.11929,-2.5 2.5,-2.5c1.38071,0 2.5,1.11929 2.5,2.5c0,1.38071 -1.11929,2.5 -2.5,2.5c-1.38071,0 -2.5,-1.11929 -2.5,-2.5z" fill="#965023" stroke="none" stroke-width="0.5" stroke-linecap="butt"/><path d="M393.31538,248.80196c0,-1.38071 1.11929,-2.5 2.5,-2.5c1.38071,0 2.5,1.11929 2.5,2.5c0,1.38071 -1.11929,2.5 -2.5,2.5c-1.38071,0 -2.5,-1.11929 -2.5,-2.5z" fill="#965023" stroke="none" stroke-width="0.5" stroke-linecap="butt"/><path d="M270.19222,335.88905c0,-2.5 2.5,-2.5 2.5,-2.5l0.38347,0.26393c1.001,-0.5005 2.002,-1.001 3.003,-1.5015c0,0 2.23607,-1.11803 3.3541,1.11803c1.11803,2.23607 -1.11803,3.3541 -1.11803,3.3541c-1.001,0.5005 -2.002,1.001 -3.003,1.5015l-2.61954,0.26393c0,0 -2.5,0 -2.5,-2.5z" fill="#965023" stroke="none" stroke-width="0.5" stroke-linecap="butt"/><path d="M421.84391,299.85301c0,-1.38071 1.11929,-2.5 2.5,-2.5c1.38071,0 2.5,1.11929 2.5,2.5c0,1.38071 -1.11929,2.5 -2.5,2.5c-1.38071,0 -2.5,-1.11929 -2.5,-2.5z" fill="#965023" stroke="none" stroke-width="0.5" stroke-linecap="butt"/><path d="M334.75677,262.31543c0,-1.38071 1.11929,-2.5 2.5,-2.5c1.38071,0 2.5,1.11929 2.5,2.5c0,1.38071 -1.11929,2.5 -2.5,2.5c-1.38071,0 -2.5,-1.11929 -2.5,-2.5z" fill="#965023" stroke="none" stroke-width="0.5" stroke-linecap="butt"/><path d="M460.88295,164.71785c0,-1.38071 1.11929,-2.5 2.5,-2.5c1.38071,0 2.5,1.11929 2.5,2.5c0,1.38071 -1.11929,2.5 -2.5,2.5c-1.38071,0 -2.5,-1.11929 -2.5,-2.5z" fill="#965023" stroke="none" stroke-width="0.5" stroke-linecap="butt"/><path d="M391.81388,118.96754c-0.69643,-0.2654 -1.5015,-0.87902 -1.5015,-2.29771c0,-2.5 2.5,-2.5 2.5,-2.5l4.0015,2.5c0,1.001 0,2.002 0,3.003c0,0 0,2.5 -2.5,2.5c-2.5,0 -2.5,-2.5 -2.5,-2.5c0,-0.2351 0,-0.47019 0,-0.70529z" fill="#965023" stroke="none" stroke-width="0.5" stroke-linecap="butt"/><path d="M447.36944,40.0932c0,-1.38071 1.11929,-2.5 2.5,-2.5c1.38071,0 2.5,1.11929 2.5,2.5c0,1.38071 -1.11929,2.5 -2.5,2.5c-1.38071,0 -2.5,-1.11929 -2.5,-2.5z" fill="#965023" stroke="none" stroke-width="0.5" stroke-linecap="butt"/><path d="M343.76583,26.57972c0,-2.5 2.5,-2.5 2.5,-2.5h3.003c0,0 2.5,0 2.5,2.5c0,2.5 -2.5,2.5 -2.5,2.5h-3.003c0,0 -2.5,0 -2.5,-2.5z" fill="#965023" stroke="none" stroke-width="0.5" stroke-linecap="butt"/><path d="M502.92498,70.12323c0,-1.38071 1.11929,-2.5 2.5,-2.5c1.38071,0 2.5,1.11929 2.5,2.5c0,1.38071 -1.11929,2.5 -2.5,2.5c-1.38071,0 -2.5,-1.11929 -2.5,-2.5z" fill="#965023" stroke="none" stroke-width="0.5" stroke-linecap="butt"/><path d="M372.29436,116.66982c0,-2.5 2.5,-2.5 2.5,-2.5h3.003c0,0 2.5,0 2.5,2.5c0,2.5 -2.5,2.5 -2.5,2.5h-3.003c0,0 -2.5,0 -2.5,-2.5z" fill="#965023" stroke="none" stroke-width="0.5" stroke-linecap="butt"/><path d="M333.25526,172.22537c0,-1.38071 1.11929,-2.5 2.5,-2.5c1.38071,0 2.5,1.11929 2.5,2.5c0,1.38071 -1.11929,2.5 -2.5,2.5c-1.38071,0 -2.5,-1.11929 -2.5,-2.5z" fill="#965023" stroke="none" stroke-width="0.5" stroke-linecap="butt"/><path d="M544.96697,206.75991c0,-1.38071 1.11929,-2.5 2.5,-2.5c1.38071,0 2.5,1.11929 2.5,2.5c0,1.38071 -1.11929,2.5 -2.5,2.5c-1.38071,0 -2.5,-1.11929 -2.5,-2.5z" fill="#965023" stroke="none" stroke-width="0.5" stroke-linecap="butt"/><path d="M469.89196,263.81697c0,-2.5 2.5,-2.5 2.5,-2.5l0.38347,0.26393c1.001,-0.5005 2.002,-1.001 3.003,-1.5015c0,0 2.23607,-1.11803 3.3541,1.11803c1.11803,2.23607 -1.11803,3.3541 -1.11803,3.3541c-1.001,0.5005 -2.002,1.001 -3.003,1.5015l-2.61954,0.26393c0,0 -2.5,0 -2.5,-2.5z" fill="#965023" stroke="none" stroke-width="0.5" stroke-linecap="butt"/><path d="M393.31538,322.3755c0,-1.38071 1.11929,-2.5 2.5,-2.5c1.38071,0 2.5,1.11929 2.5,2.5c0,1.38071 -1.11929,2.5 -2.5,2.5c-1.38071,0 -2.5,-1.11929 -2.5,-2.5z" fill="#965023" stroke="none" stroke-width="0.5" stroke-linecap="butt"/><path d="M529.95197,313.3665c0,-1.38071 1.11929,-2.5 2.5,-2.5c1.38071,0 2.5,1.11929 2.5,2.5c0,1.38071 -1.11929,2.5 -2.5,2.5c-1.38071,0 -2.5,-1.11929 -2.5,-2.5z" fill="#965023" stroke="none" stroke-width="0.5" stroke-linecap="butt"/><path d="M414.3364,247.30045c0,-1.38071 1.11929,-2.5 2.5,-2.5c1.38071,0 2.5,1.11929 2.5,2.5c0,1.38071 -1.11929,2.5 -2.5,2.5c-1.38071,0 -2.5,-1.11929 -2.5,-2.5z" fill="#965023" stroke="none" stroke-width="0.5" stroke-linecap="butt"/><path d="M552.96998,236.78995c0,2.5 -2.5,2.5 -2.5,2.5h-3.003c0,0 -2.5,0 -2.5,-2.5c0,-2.5 2.5,-2.5 2.5,-2.5h3.003c0,0 2.5,0 2.5,2.5z" fill="#965023" stroke="none" stroke-width="0.5" stroke-linecap="butt"/><path d="M456.25891,151.97126c2.23607,-1.11803 3.3541,1.11803 3.3541,1.11803l1.5015,3.003c0,0 1.11803,2.23607 -1.11803,3.3541c-2.23607,1.11803 -3.3541,-1.11803 -3.3541,-1.11803l-1.5015,-3.003c0,0 -1.11803,-2.23607 1.11803,-3.3541z" fill="#965023" stroke="none" stroke-width="0.5" stroke-linecap="butt"/><path d="M544.96697,107.66081c0,-1.38071 1.11929,-2.5 2.5,-2.5c1.38071,0 2.5,1.11929 2.5,2.5c0,1.38071 -1.11929,2.5 -2.5,2.5c-1.38071,0 -2.5,-1.11929 -2.5,-2.5z" fill="#965023" stroke="none" stroke-width="0.5" stroke-linecap="butt"/><path d="M448.87094,77.63075c0,-1.38071 1.11929,-2.5 2.5,-2.5c1.38071,0 2.5,1.11929 2.5,2.5c0,1.38071 -1.11929,2.5 -2.5,2.5c-1.38071,0 -2.5,-1.11929 -2.5,-2.5z" fill="#965023" stroke="none" stroke-width="0.5" stroke-linecap="butt"/><path d="M402.32439,16.06921c0,-1.38071 1.11929,-2.5 2.5,-2.5c1.38071,0 2.5,1.11929 2.5,2.5c0,1.38071 -1.11929,2.5 -2.5,2.5c-1.38071,0 -2.5,-1.11929 -2.5,-2.5z" fill="#965023" stroke="none" stroke-width="0.5" stroke-linecap="butt"/><path d="M525.44751,38.5917c0,-1.38071 1.11929,-2.5 2.5,-2.5c1.38071,0 2.5,1.11929 2.5,2.5c0,1.38071 -1.11929,2.5 -2.5,2.5c-1.38071,0 -2.5,-1.11929 -2.5,-2.5z" fill="#965023" stroke="none" stroke-width="0.5" stroke-linecap="butt"/><path d="M435.48572,90.43336c-0.79057,-2.37171 1.58114,-3.16228 1.58114,-3.16228l4.5045,-1.5015c0,0 2.37171,-0.79057 3.16228,1.58114c0.79057,2.37171 -1.58114,3.16228 -1.58114,3.16228l-4.5045,1.5015c0,0 -2.37171,0.79057 -3.16228,-1.58114z" fill="#965023" stroke="none" stroke-width="0.5" stroke-linecap="butt"/><path d="M484.90697,32.5857c0,-1.38071 1.11929,-2.5 2.5,-2.5c1.38071,0 2.5,1.11929 2.5,2.5c0,1.38071 -1.11929,2.5 -2.5,2.5c-1.38071,0 -2.5,-1.11929 -2.5,-2.5z" fill="#965023" stroke="none" stroke-width="0.5" stroke-linecap="butt"/><path d="M593.01501,80.63375c0,-1.38071 1.11929,-2.5 2.5,-2.5c1.38071,0 2.5,1.11929 2.5,2.5c0,1.38071 -1.11929,2.5 -2.5,2.5c-1.38071,0 -2.5,-1.11929 -2.5,-2.5z" fill="#965023" stroke="none" stroke-width="0.5" stroke-linecap="butt"/><path d="M471.39346,118.17132c0,-2.5 2.5,-2.5 2.5,-2.5h3.003c0,0 2.5,0 2.5,2.5c0,2.5 -2.5,2.5 -2.5,2.5h-3.003c0,0 -2.5,0 -2.5,-2.5z" fill="#965023" stroke="none" stroke-width="0.5" stroke-linecap="butt"/><path d="M574.997,158.71185c0,-1.38071 1.11929,-2.5 2.5,-2.5c1.38071,0 2.5,1.11929 2.5,2.5c0,1.38071 -1.11929,2.5 -2.5,2.5c-1.38071,0 -2.5,-1.11929 -2.5,-2.5z" fill="#965023" stroke="none" stroke-width="0.5" stroke-linecap="butt"/><path d="M459.38145,178.23139c0,-2.5 2.5,-2.5 2.5,-2.5l2.42862,0.06688c0.81978,-0.43482 1.63957,-0.86963 2.45935,-1.30445c0,0 2.23607,-1.11803 3.3541,1.11803c1.11803,2.23607 -1.11803,3.3541 -1.11803,3.3541c-1.18222,0.56619 -2.36444,1.13237 -3.54665,1.69856l-3.57739,0.06688c0,0 -2.5,0 -2.5,-2.5z" fill="#965023" stroke="none" stroke-width="0.5" stroke-linecap="butt"/><path d="M438.36043,139.19233c0,-1.38071 1.11929,-2.5 2.5,-2.5c1.38071,0 2.5,1.11929 2.5,2.5c0,1.38071 -1.11929,2.5 -2.5,2.5c-1.38071,0 -2.5,-1.11929 -2.5,-2.5z" fill="#965023" stroke="none" stroke-width="0.5" stroke-linecap="butt"/><path d="M529.95197,160.21335c0,-1.38071 1.11929,-2.5 2.5,-2.5c1.38071,0 2.5,1.11929 2.5,2.5c0,1.38071 -1.11929,2.5 -2.5,2.5c-1.38071,0 -2.5,-1.11929 -2.5,-2.5z" fill="#965023" stroke="none" stroke-width="0.5" stroke-linecap="butt"/><path d="M605.02705,190.2434c0,-1.38071 1.11929,-2.5 2.5,-2.5c1.38071,0 2.5,1.11929 2.5,2.5c0,1.38071 -1.11929,2.5 -2.5,2.5c-1.38071,0 -2.5,-1.11929 -2.5,-2.5z" fill="#965023" stroke="none" stroke-width="0.5" stroke-linecap="butt"/><path d="M352.77484,167.72087c0,-1.38071 1.11929,-2.5 2.5,-2.5c1.38071,0 2.5,1.11929 2.5,2.5c0,1.38071 -1.11929,2.5 -2.5,2.5c-1.38071,0 -2.5,-1.11929 -2.5,-2.5z" fill="#965023" stroke="none" stroke-width="0.5" stroke-linecap="butt"/><path d="M480.40247,242.79595c0,-1.38071 1.11929,-2.5 2.5,-2.5c1.38071,0 2.5,1.11929 2.5,2.5c0,1.38071 -1.11929,2.5 -2.5,2.5c-1.38071,0 -2.5,-1.11929 -2.5,-2.5z" fill="#965023" stroke="none" stroke-width="0.5" stroke-linecap="butt"/><path d="M559.98201,263.81697c0,-1.38071 1.11929,-2.5 2.5,-2.5c1.38071,0 2.5,1.11929 2.5,2.5c0,1.38071 -1.11929,2.5 -2.5,2.5c-1.38071,0 -2.5,-1.11929 -2.5,-2.5z" fill="#965023" stroke="none" stroke-width="0.5" stroke-linecap="butt"/><path d="M384.30637,263.81697c0,-2.5 2.5,-2.5 2.5,-2.5h3.003c0,0 2.5,0 2.5,2.5c0,2.5 -2.5,2.5 -2.5,2.5h-3.003c0,0 -2.5,0 -2.5,-2.5z" fill="#965023" stroke="none" stroke-width="0.5" stroke-linecap="butt"/><path d="M421.84391,205.25841c0,-1.38071 1.11929,-2.5 2.5,-2.5c1.38071,0 2.5,1.11929 2.5,2.5c0,1.38071 -1.11929,2.5 -2.5,2.5c-1.38071,0 -2.5,-1.11929 -2.5,-2.5z" fill="#965023" stroke="none" stroke-width="0.5" stroke-linecap="butt"/><path d="M523.946,220.27342c0,-1.38071 1.11929,-2.5 2.5,-2.5c1.38071,0 2.5,1.11929 2.5,2.5c0,1.38071 -1.11929,2.5 -2.5,2.5c-1.38071,0 -2.5,-1.11929 -2.5,-2.5z" fill="#965023" stroke="none" stroke-width="0.5" stroke-linecap="butt"/><path d="M423.34541,253.30646c0,-2.5 2.5,-2.5 2.5,-2.5h3.003c0,0 2.5,0 2.5,2.5c0,2.5 -2.5,2.5 -2.5,2.5h-3.003c0,0 -2.5,0 -2.5,-2.5z" fill="#965023" stroke="none" stroke-width="0.5" stroke-linecap="butt"/><path d="M552.47448,253.30646c0,-1.38071 1.11929,-2.5 2.5,-2.5c1.38071,0 2.5,1.11929 2.5,2.5c0,1.38071 -1.11929,2.5 -2.5,2.5c-1.38071,0 -2.5,-1.11929 -2.5,-2.5z" fill="#965023" stroke="none" stroke-width="0.5" stroke-linecap="butt"/><path d="M621.54356,247.30045c0,-1.38071 1.11929,-2.5 2.5,-2.5c1.38071,0 2.5,1.11929 2.5,2.5c0,1.38071 -1.11929,2.5 -2.5,2.5c-1.38071,0 -2.5,-1.11929 -2.5,-2.5z" fill="#965023" stroke="none" stroke-width="0.5" stroke-linecap="butt"/><path d="M352.77484,215.76893c0,-1.38071 1.11929,-2.5 2.5,-2.5c1.38071,0 2.5,1.11929 2.5,2.5c0,1.38071 -1.11929,2.5 -2.5,2.5c-1.38071,0 -2.5,-1.11929 -2.5,-2.5z" fill="#965023" stroke="none" stroke-width="0.5" stroke-linecap="butt"/><path d="M291.21325,244.29745c0,-1.38071 1.11929,-2.5 2.5,-2.5c1.38071,0 2.5,1.11929 2.5,2.5c0,1.38071 -1.11929,2.5 -2.5,2.5c-1.38071,0 -2.5,-1.11929 -2.5,-2.5z" fill="#965023" stroke="none" stroke-width="0.5" stroke-linecap="butt"/><path d="M195.11718,254.80797c0,-1.38071 1.11929,-2.5 2.5,-2.5c1.38071,0 2.5,1.11929 2.5,2.5c0,1.38071 -1.11929,2.5 -2.5,2.5c-1.38071,0 -2.5,-1.11929 -2.5,-2.5z" fill="#965023" stroke="none" stroke-width="0.5" stroke-linecap="butt"/><path d="M174.09615,220.27342c0,-1.38071 1.11929,-2.5 2.5,-2.5c1.38071,0 2.5,1.11929 2.5,2.5c0,1.38071 -1.11929,2.5 -2.5,2.5c-1.38071,0 -2.5,-1.11929 -2.5,-2.5z" fill="#965023" stroke="none" stroke-width="0.5" stroke-linecap="butt"/><path d="M252.17423,250.30346c0,-1.38071 1.11929,-2.5 2.5,-2.5c1.38071,0 2.5,1.11929 2.5,2.5c0,1.38071 -1.11929,2.5 -2.5,2.5c-1.38071,0 -2.5,-1.11929 -2.5,-2.5z" fill="#965023" stroke="none" stroke-width="0.5" stroke-linecap="butt"/><path d="M201.12318,322.3755c0,-1.38071 1.11929,-2.5 2.5,-2.5c1.38071,0 2.5,1.11929 2.5,2.5c0,1.38071 -1.11929,2.5 -2.5,2.5c-1.38071,0 -2.5,-1.11929 -2.5,-2.5z" fill="#965023" stroke="none" stroke-width="0.5" stroke-linecap="butt"/><path d="M331.75382,319.37253c0,-1.38071 1.11929,-2.5 2.5,-2.5c1.38071,0 2.5,1.11929 2.5,2.5c0,1.38071 -1.11929,2.5 -2.5,2.5c-1.38071,0 -2.5,-1.11929 -2.5,-2.5z" fill="#965023" stroke="none" stroke-width="0.5" stroke-linecap="butt"/><path d="M451.87394,299.85301c0,-1.38071 1.11929,-2.5 2.5,-2.5c1.38071,0 2.5,1.11929 2.5,2.5c0,1.38071 -1.11929,2.5 -2.5,2.5c-1.38071,0 -2.5,-1.11929 -2.5,-2.5z" fill="#965023" stroke="none" stroke-width="0.5" stroke-linecap="butt"/><path d="M499.92198,326.88004c0,-1.38071 1.11929,-2.5 2.5,-2.5c1.38071,0 2.5,1.11929 2.5,2.5c0,1.38071 -1.11929,2.5 -2.5,2.5c-1.38071,0 -2.5,-1.11929 -2.5,-2.5z" fill="#965023" stroke="none" stroke-width="0.5" stroke-linecap="butt"/><path d="M626.04806,323.87702c0,-1.38071 1.11929,-2.5 2.5,-2.5c1.38071,0 2.5,1.11929 2.5,2.5c0,1.38071 -1.11929,2.5 -2.5,2.5c-1.38071,0 -2.5,-1.11929 -2.5,-2.5z" fill="#965023" stroke="none" stroke-width="0.5" stroke-linecap="butt"/><path d="M605.02705,296.84997c0,-1.38071 1.11929,-2.5 2.5,-2.5c1.38071,0 2.5,1.11929 2.5,2.5c0,1.38071 -1.11929,2.5 -2.5,2.5c-1.38071,0 -2.5,-1.11929 -2.5,-2.5z" fill="#965023" stroke="none" stroke-width="0.5" stroke-linecap="butt"/><path d="M559.98201,329.88302c0,-1.38071 1.11929,-2.5 2.5,-2.5c1.38071,0 2.5,1.11929 2.5,2.5c0,1.38071 -1.11929,2.5 -2.5,2.5c-1.38071,0 -2.5,-1.11929 -2.5,-2.5z" fill="#965023" stroke="none" stroke-width="0.5" stroke-linecap="butt"/><path d="M388.81088,338.89205c0,-1.38071 1.11929,-2.5 2.5,-2.5c1.38071,0 2.5,1.11929 2.5,2.5c0,1.38071 -1.11929,2.5 -2.5,2.5c-1.38071,0 -2.5,-1.11929 -2.5,-2.5z" fill="#965023" stroke="none" stroke-width="0.5" stroke-linecap="butt"/><path d="M457.87995,325.37854c0,-1.38071 1.11929,-2.5 2.5,-2.5c1.38071,0 2.5,1.11929 2.5,2.5c0,1.38071 -1.11929,2.5 -2.5,2.5c-1.38071,0 -2.5,-1.11929 -2.5,-2.5z" fill="#965023" stroke="none" stroke-width="0.5" stroke-linecap="butt"/><path d="M80.51204,346.2404c0,-1.38071 1.11929,-2.5 2.5,-2.5c1.38071,0 2.5,1.11929 2.5,2.5c0,1.38071 -1.11929,2.5 -2.5,2.5c-1.38071,0 -2.5,-1.11929 -2.5,-2.5z" fill="#965023" stroke="none" stroke-width="0.5" stroke-linecap="butt"/><path d="M136.51206,316.24037c0,-1.38071 1.11929,-2.5 2.5,-2.5c1.38071,0 2.5,1.11929 2.5,2.5c0,1.38071 -1.11929,2.5 -2.5,2.5c-1.38071,0 -2.5,-1.11929 -2.5,-2.5z" fill="#965023" stroke="none" stroke-width="0.5" stroke-linecap="butt"/><path d="M80.51204,262.24037c0,-1.38071 1.11929,-2.5 2.5,-2.5c1.38071,0 2.5,1.11929 2.5,2.5c0,1.38071 -1.11929,2.5 -2.5,2.5c-1.38071,0 -2.5,-1.11929 -2.5,-2.5z" fill="#965023" stroke="none" stroke-width="0.5" stroke-linecap="butt"/><path d="M109.51207,217.24039c0,-1.38071 1.11929,-2.5 2.5,-2.5c1.38071,0 2.5,1.11929 2.5,2.5c0,1.38071 -1.11929,2.5 -2.5,2.5c-1.38071,0 -2.5,-1.11929 -2.5,-2.5z" fill="#965023" stroke="none" stroke-width="0.5" stroke-linecap="butt"/><path d="M55.51206,98.24038c0,-1.38071 1.11929,-2.5 2.5,-2.5c1.38071,0 2.5,1.11929 2.5,2.5c0,1.38071 -1.11929,2.5 -2.5,2.5c-1.38071,0 -2.5,-1.11929 -2.5,-2.5z" fill="#965023" stroke="none" stroke-width="0.5" stroke-linecap="butt"/><path d="M108.51207,18.24038c0,-1.38071 1.11929,-2.5 2.5,-2.5c1.38071,0 2.5,1.11929 2.5,2.5c0,1.38071 -1.11929,2.5 -2.5,2.5c-1.38071,0 -2.5,-1.11929 -2.5,-2.5z" fill="#965023" stroke="none" stroke-width="0.5" stroke-linecap="butt"/><path d="M216.51208,33.24036c0,-1.38071 1.11929,-2.5 2.5,-2.5c1.38071,0 2.5,1.11929 2.5,2.5c0,1.38071 -1.11929,2.5 -2.5,2.5c-1.38071,0 -2.5,-1.11929 -2.5,-2.5z" fill="#965023" stroke="none" stroke-width="0.5" stroke-linecap="butt"/><path d="M185.51206,103.24038c0,-1.38071 1.11929,-2.5 2.5,-2.5c1.38071,0 2.5,1.11929 2.5,2.5c0,1.38071 -1.11929,2.5 -2.5,2.5c-1.38071,0 -2.5,-1.11929 -2.5,-2.5z" fill="#965023" stroke="none" stroke-width="0.5" stroke-linecap="butt"/><path d="M119.2943,301.78377v-219.21922h426.42643v219.21922z" fill-opacity="0.51765" fill="#000000" stroke="none" stroke-width="0" stroke-linecap="butt"/><path d="M106.7868,289.60961v-219.21922h426.42643v219.21922z" fill="#ffffff" stroke="#000000" stroke-width="5" stroke-linecap="butt"/><path d="M83.88705,104.18135c0,8.42234 -14.77461,15.25 -33,15.25c-18.22539,0 -33,-6.82766 -33,-15.25c0,-8.42234 14.7746,-15.25 33,-15.25c18.2254,0 33,6.82766 33,15.25z" fill-opacity="0.51765" fill="#000000" stroke="none" stroke-width="NaN" stroke-linecap="butt"/><path d="M19.05434,56.75721c0,0 -1.60961,-2.30071 0,-4.60142c1.60961,-2.30071 3.21922,0 3.21922,0c1.26561,1.81094 2.55808,3.58877 3.91862,5.25315l0.6871,0.97395c2.50083,0.77934 5.65418,2.83545 7.4446,5.40403c0.06247,0.03677 0.12544,0.07275 0.18895,0.10778c3.57165,1.97031 8.48098,4.63829 12.31229,4.66115c4.59341,0.02739 9.18693,0.01951 13.78036,0c1.11503,-0.00473 2.0736,-1.55648 3.14741,-2.00722c2.5368,-1.06484 6.50522,-3.15959 9.84873,-3.68791l0.5301,-0.46636c1.78826,-2.58322 3.38332,-5.17364 4.90751,-8.08246c0,0 1.3658,-2.60296 3.18686,-0.65074c1.82107,1.95222 0.45526,4.55517 0.45526,4.55517c-1.22758,2.33652 -2.49698,4.4677 -3.85859,6.54488c0.93645,2.14942 -0.27905,5.50993 -0.59229,7.63648c-0.26201,1.77881 -0.5836,3.55696 -0.65822,5.37163c-0.13647,3.31875 -0.33781,13.22562 -2.03194,19.35173c-0.0789,1.68953 -0.69914,3.16724 -1.61499,4.08187c-1.05263,1.79075 -2.42661,3.27366 -3.71691,4.70815c-5.77065,6.41548 -17.90177,12.49168 -25.44272,9.07007c-1.69434,-0.76878 -3.35188,-2.983 -4.99528,-4.1575c-2.76819,-1.97836 -6.45065,-3.34831 -8.83396,-6.26825c-5.34486,-6.54833 -5.001,-17.53244 -6.38725,-26.49451c-0.38077,-2.46171 -2.34313,-6.92171 -2.36772,-9.14351c-0.0077,-0.69573 0.11536,-1.07697 0.27843,-1.34848c-0.02501,-0.03143 -0.04973,-0.06333 -0.07416,-0.09567c-0.74787,-0.99048 -1.21598,-2.40644 -1.21598,-3.97867c0,-1.09777 0.22821,-2.11935 0.62052,-2.97311c-0.93254,-1.22346 -1.84067,-2.4858 -2.73597,-3.76422z" fill="#252525" stroke="none" stroke-width="0.5" stroke-linecap="butt"/><path d="M83.22281,52.18134c1.45539,0 1.93903,1.0031 2.09974,1.66976c0.86279,0.8837 0.47245,2.22678 0.47245,2.22678l-0.40772,1.40286c0.0836,0.254 0.16791,0.52319 0.25307,0.8081c0.30386,1.01651 -0.59201,2.04335 -0.7661,3.09185c-0.41191,2.48071 -0.69468,5.0429 -1.66238,7.35307c-0.42972,0.71336 -0.85944,1.42673 -1.28915,2.14009l-0.5493,0.64849c0,0 -0.86613,0.89405 -1.94911,0.67153c-1.49599,9.30687 -3.15188,18.77317 -5.78599,27.77808c-0.92195,2.09463 -1.23577,4.47971 -2.3976,6.44309c-1.99328,3.36843 -6.49316,4.23742 -9.8494,4.9678c-6.64902,1.44696 -15.15705,2.10635 -21.84843,0.2203c-2.50202,-0.70522 -5.14724,-1.93407 -7.62753,-2.78725c0,0 -1.04115,-0.35824 -1.39966,-1.32891l-0.80054,-0.51647c-0.56776,-0.10957 -1.13475,-0.22322 -1.70062,-0.34274l-1.70688,-2.69642c0,0 0,-0.52662 0.24682,-1.07031c-0.80886,-0.80845 -1.21258,-1.96185 -1.82126,-2.94075c-0.36848,-2.93395 -0.0461,-6.19772 -0.98008,-9.03449c-0.80306,-2.43912 -1.99886,-4.57437 -2.27631,-7.20894c-0.18405,-1.74764 0.15369,-3.52327 -0.0024,-5.2738c-0.21426,-2.40275 -1.29927,-4.59107 -1.87513,-6.8942c-0.93307,-3.73183 1.39599,-9.5215 -2.34256,-11.36065c0,0 -1.90542,-1.09269 -0.84685,-3.05955c1.05857,-1.96686 2.964,-0.87416 2.964,-0.87416c0.9098,0.56603 2.03139,0.87154 2.72941,1.69811c2.72379,3.22543 0.91659,6.67685 1.28745,10.29703c0.24583,2.39965 1.32908,4.60395 1.88336,6.92721c0.66287,2.77842 0.2651,5.2739 0.53616,8.04899c0.22312,2.28439 1.40898,4.16929 2.08316,6.29106c0.93236,2.93431 0.72744,5.94691 0.95745,8.96551c0.56574,1.01202 1.91639,1.26272 2.76128,2.04029c0.72757,0.6696 1.08663,1.67077 1.62995,2.50616l1.19235,1.96925c2.07019,0.77539 4.19131,1.69899 6.24788,2.30146c5.9897,1.75466 13.84965,1.0134 19.80863,-0.2797c1.95563,-0.42437 5.98236,-0.84645 7.10405,-3.0322c0.89404,-1.74214 1.17123,-3.7623 1.96186,-5.55692c2.49301,-8.63935 3.27558,-17.61866 5.50445,-26.2869c1.24418,-4.83871 1.08966,-10.887 4.32282,-15.0231c0.61321,-0.78447 1.16308,-1.47242 1.66753,-2.0055l-0.00857,-0.6439c0,0 0,-2.25 2.17973,-2.25z" fill="#252525" stroke="none" stroke-width="0.5" stroke-linecap="butt"/><path d="M86.76205,44.49892c0,12.90966 -15.89389,23.375 -35.5,23.375c-19.60611,0 -35.5,-10.46534 -35.5,-23.375c0,-12.90965 15.89389,-23.375 35.5,-23.375c19.60611,0 35.5,10.46534 35.5,23.375z" fill="#494949" stroke="#000000" stroke-width="3.5" stroke-linecap="butt"/><g fill="#000000"><path d="M79.36125,57.31915c-4.25961,2.35806 -9.11104,5.44788 -13.64381,7.20335c-2.43402,0.94266 -5.07285,0.86754 -7.58487,1.1454c-4.30846,0.47657 -8.26329,0.75203 -12.61994,0.51c-3.21433,-0.17857 -6.43694,-0.37257 -9.53961,-1.34678c-0.84914,-0.26663 -1.8762,-0.33749 -2.48233,-0.98721l-0.82086,-0.17589c-0.00943,-0.00002 -0.01886,-0.00006 -0.02829,-0.00011l-0.0108,-0.00827l-0.228,-0.04886l-0.00377,0.01698l-2.20674,-0.49039c-0.97191,-0.1949 -1.71748,-1.01602 -1.79796,-2.02461c-0.77842,-0.00451 -1.69007,-0.07954 -2.8524,-0.20806l-0.08941,-0.0504l-0.00666,0.03334l-2.45913,-0.49182c-1.05163,-0.18888 -1.84961,-1.10849 -1.84961,-2.21448c0,-0.9226 0.55529,-1.7155 1.34989,-2.06273c-1.27051,-0.58916 -2.53336,-1.24419 -3.79239,-2.02928c0,0 -1.90799,-1.1925 -0.7155,-3.10049c0.5684,-0.90944 1.29935,-1.11447 1.90876,-1.07999c-0.00018,-0.00353 -0.00036,-0.00706 -0.00052,-0.01059c-0.10772,-2.29494 3.92835,-3.40243 5.444,-4.20386c4.70314,-2.48687 9.24609,-5.10264 14.37666,-6.65814c8.82273,-2.93001 18.08835,-1.65028 26.70301,1.53236c2.41911,0.89373 4.9262,1.0891 7.17779,2.46049c2.27232,1.38403 5.54615,3.3482 7.57214,5.2693l1.921,0.42689c1.02958,0.20647 1.80517,1.11568 1.80517,2.20604c0,0.69763 -0.3175,1.32111 -0.81588,1.73381c-0.4817,1.76759 -3.47322,3.72619 -4.70992,4.65401z" stroke="none" stroke-width="0.5" stroke-linecap="butt"/><path d="M18.13704,52.43134c0,0 13.85486,-14.25 32,-14.25c19.02014,0 35,13.25 35,13.25" stroke="#111111" stroke-width="3" stroke-linecap="round"/></g><path d="M86.51206,52.05634l-13.90141,53.29945c0,0 -4.13517,8.92574 -23.83099,9.69081c-9.41653,0.36578 -21.84507,-9.69081 -21.84507,-9.69081l-10.92254,-53.29945" fill="none" stroke="#000000" stroke-width="3.5" stroke-linecap="round"/><path d="M69.40382,184.48753c0.38586,0.49928 0.43309,1.06212 0.37873,1.51074c0.1098,0.10564 0.22521,0.20478 0.34934,0.29388c3.73241,2.67872 5.53761,-3.42892 9.61347,-3.04386c3.15323,0.2979 6.19952,3.50229 8.30904,5.5789c0.8573,0.84393 2.17904,1.38742 2.58284,2.52061c0.43448,1.21926 0.03813,2.62307 -0.30522,3.87105c-0.88814,3.22813 -3.72894,6.37027 -5.06609,9.50321c-1.84137,4.14309 -5.00205,9.06838 -3.56645,13.81132c0.40649,1.34295 1.30683,2.52276 2.26413,3.54858c0.96198,1.03083 3.04163,1.758 2.82219,3.1508c-0.26599,1.68825 -2.36535,2.54063 -3.85179,3.3841c-2.56658,1.45639 -9.05461,0.41926 -11.54155,-0.69625c-1.26609,-0.5679 -2.70833,-1.14145 -3.46804,-2.30263c-0.50756,-0.77579 -0.21926,-4.43579 -0.29829,-5.6365c-0.21127,-3.20968 -1.82176,-6.14504 -3.04984,-9.05606c-2.052,-2.88162 -4.952,-5.15383 -8.3767,-6.28912c-3.44856,-1.14319 -8.15832,-0.42211 -10.72557,-3.70879c-2.77331,-3.55047 -1.33477,-7.48301 1.46112,-10.3521c4.78756,-4.9129 13.23746,-7.31488 19.72296,-8.93625c0,0 2.18283,-0.5457 2.72853,1.63711c0.11966,0.47863 0.10813,0.87855 0.01718,1.21126z" fill="#000000" stroke="none" stroke-width="0.5" stroke-linecap="butt"/><path d="M114.13743,314.1907c0,2.25 -2.25,2.25 -2.25,2.25c-3.29233,0 -6.72329,0.29708 -10,0c-0.57667,-0.05228 -1.25966,-0.81826 -1.6844,-0.4247c-0.58476,0.54183 -0.26775,1.57173 -0.40163,2.3576l-2.23364,2.31549c0.01979,0.02513 0.03969,0.05017 0.0597,0.07514c1.99115,2.48422 6.12699,3.44548 7.33871,6.56543c2.4275,6.25036 -3.53704,11.38811 -7.65225,14.60106c-0.91209,0.71211 -1.48758,1.91773 -2.56544,2.33871c-0.55198,0.21558 -5.91682,0.17127 -6.86104,0.17127c-6.35043,-0.10868 -16.1823,-4.90779 -13.07873,-13.11104c1.0065,-2.66034 4.77846,-3.94391 6.16477,-6.32185c0.53089,-0.91064 0.44817,-2.1019 1,-3c1.40432,-2.28551 4.41509,-4.50022 6.32298,-6.4081l2,-2c0,0 1.1588,-1.15881 2.48744,-0.50952c0.18017,-0.16019 0.3539,-0.32243 0.51256,-0.49048c1.10846,-1.17404 2.07256,-2.57995 3.48242,-3.36696c3.96175,-2.2115 9.75514,-1.29205 14.10857,-1.29205c0,0 2.25,0 2.25,2.25c0,0.93052 -0.38482,1.4762 -0.83617,1.79622c0.64981,0.12254 1.83617,0.56997 1.83617,2.20378zM95.07724,316.70768c-0.01331,0.05651 -0.01842,0.112 -0.01656,0.16661l0.81489,-0.77353c-0.36022,0.13948 -0.71898,0.26983 -0.79833,0.60692z" fill="#000000" stroke="none" stroke-width="0.5" stroke-linecap="butt"/><path d="M281.88742,297.9407c2.25,0 2.25,2.25 2.25,2.25l-0.65901,0.40901c1.76801,1.80052 2.8475,4.16718 4.2343,6.27539c0.92964,1.41324 2.41008,2.37443 3.60118,3.57558c5.73281,3.84596 10.9458,4.69583 13.68377,11.95939c0.78075,2.07126 1.78296,6.32197 0.96849,8.64167c-0.31234,0.88957 -1.64772,1.12548 -2,2c-0.39882,0.99004 0.47865,2.30052 -0.09496,3.20064c-0.83744,1.31412 -2.4676,1.90481 -3.73569,2.81043c-3.6248,2.58873 -6.33553,4.07301 -10.61901,5.28816c-2.14363,0.60811 -3.85419,2.31616 -5.97706,2.99318c-1.16019,0.37001 -2.43432,0.0843 -3.65202,0.09654c-4.0843,0.04105 -8.02564,-0.38597 -11.54439,-2.0599c-0.03174,0.01027 -0.06347,0.02056 -0.0952,0.03085l-0.36041,-0.2382v0.26725h-3c-1.24264,0 -2.25,-1.00736 -2.25,-2.25c0,-1.24264 1.00736,-2.25 2.25,-2.25h2.72423c4.09873,-1.40434 8.29439,-2.46391 12.41473,-3.82873c1.2439,-0.62244 2.50489,-1.21185 3.73171,-1.86732c0.78159,-0.4176 1.79739,-0.61354 2.29015,-1.35006c1.43959,-2.15172 1.26891,-7.77252 -1.81283,-8.55043c-0.8481,-0.21409 -1.75673,0.20164 -2.62289,0.07968c-3.75624,-0.52888 -8.98998,-1.69856 -12.50572,-3.1229c-1.72418,-0.69853 -3.66718,-1.26005 -4.91914,-2.63603c-5.24978,-5.76984 3.03659,-13.14328 7.71123,-15.49542c1.05626,-0.53148 2.22395,-0.80927 3.35947,-1.13906c1.34747,-0.39135 2.72224,-0.6817 4.08337,-1.02255c0,0 0.25768,-0.06442 0.61809,-0.06046l-0.32239,-1.75672c0,0 0,-2.25 2.25,-2.25z" fill="#000000" stroke="none" stroke-width="0.5" stroke-linecap="butt"/><path d="M381.63411,318.50118l0.54182,-0.44497c4.27184,-1.38491 8.25518,-1.11547 12.71151,-1.11547c3.57007,0 6.39312,-0.17788 9.79575,1.14542c1.32337,0.51466 2.94745,0.67219 3.89132,1.733c0.13028,0.14643 0.25408,0.29732 0.37219,0.45214l0.04074,-0.03055l2.68636,3.58182c0.2908,0.37912 0.46364,0.85346 0.46364,1.36818c0,1.24264 -1.00736,2.25 -2.25,2.25h-3.72798c-3.83569,1.24303 -7.75268,0.22017 -11.41098,1.82873c-2.2138,0.97341 -4.60997,1.58179 -6.67814,2.83524c-0.80629,0.48866 -1.1802,1.53438 -2,2c-2.61331,1.48428 -5.54091,1.6736 -8.45781,1.31917c-1.53654,-0.1867 -3.09208,-0.49247 -4.50572,-1.1229c-1.89207,-0.84379 -4.41259,-1.3763 -5.2981,-3.2492c-0.76707,-1.62239 0.33988,-3.70474 1.29064,-5.22677c0.76599,-1.22624 2.34946,-1.68603 3.54002,-2.50638c3.18664,-2.19574 5.58002,-3.71579 8.99475,-4.81745z" fill="#000000" stroke="none" stroke-width="0.5" stroke-linecap="butt"/><path d="M597.8874,172.94075c2.25,0 2.25,2.25 2.25,2.25l-0.11546,1.71151c-1.19204,3.5559 -1.09136,3.74141 -3.18849,7.41782c-1.57875,2.76765 -3.32587,5.05447 -2.7251,8.51026c1.14932,6.61119 6.55018,12.25836 7.99295,18.95896c1.30269,6.05002 -0.78817,12.23941 -2.65634,17.8439c-1.86068,5.58203 -4.02166,12.04692 -8.29152,16.36978c-1.11644,1.13029 -2.57345,1.86797 -3.79183,2.88755c-3.47927,2.91156 -5.23014,6.11168 -9.95726,7.49004c-4.20969,1.22749 -12.07568,-0.47015 -15.10793,-3.59882c-2.95411,-3.04803 -2.67687,-5.06798 -2.65901,-8.59099c0.00617,-1.21775 -0.29336,-2.49836 0.09654,-3.65202c0.54656,-1.61713 3.33965,-5.24877 4.97056,-6.26195c2.93547,-1.82362 3.9199,-0.39774 6.69384,-2.77281c0.87847,-0.75215 1.26537,-1.93614 1.89806,-2.90421c3.59039,-2.41199 4.19605,-3.88202 7.00712,-7.2807c0.75092,-0.90788 2.09035,-1.46749 2.38562,-2.60808c0.70557,-2.72556 -2.8398,-5.55452 -3.75969,-7.41166c-3.52741,-7.12133 -2.87197,-17.06996 -1.24491,-24.56673c0.81997,-3.77808 0.71773,-5.14743 3.88726,-7.36713c3.12686,-2.18983 7.03888,-3.12083 10.60409,-4.30924c0,0 2.13454,-0.71151 2.84605,1.42302c0.06961,0.20882 0.11197,0.40401 0.13177,0.58626c0.21986,-0.52244 0.42172,-1.05058 0.59916,-1.58626l-0.11546,-0.28849c0,0 0,-2.25 2.25,-2.25z" fill="#000000" stroke="none" stroke-width="0.5" stroke-linecap="butt"/><path d="M558.75285,24.90224c0,0 -0.20853,-0.62559 -0.06113,-1.31231l-0.93886,-3.11071c2.03965,-5.80089 6.72246,-10.50996 13.13454,-10.53849c3.62992,-0.01615 6.85814,-0.50612 9.69977,2.7758c4.00653,4.6273 1.08625,4.74392 -0.87448,7.78981c-1.45549,2.26103 -2.82686,4.63682 -3.63549,7.20135c-0.11508,0.36495 -0.73454,3.11028 0.67123,3.40433c1.96512,0.41104 4.01747,-0.08376 6.02295,0.00965c3.51096,3.44498 5.25924,7.23225 6.54796,12.04209c2.54927,9.51453 0.80021,23.48228 -9.02481,28.54491c-1.43208,0.73792 -3.07079,0.98283 -4.57067,1.57081c-2.58587,1.0137 -4.56029,2.56813 -7.41099,3.12067c-5.03592,0.97609 -9.57512,-0.65564 -11.72808,-5.49682c-0.67249,-1.51216 -0.69034,-3.23716 -1.0212,-4.85871c-0.31465,-1.54214 -1.05166,-3.06418 -0.91526,-4.63216c0.00644,-0.07408 0.01385,-0.14798 0.02215,-0.22171h-0.0331v-4c0,-1.24264 1.00736,-2.25 2.25,-2.25c1.01214,0 1.86819,0.66831 2.15094,1.58771l0.4822,1.44659c2.87652,-2.2343 9.17952,-4.15384 10.13676,-8.08295c0.20966,-0.86059 -1.64508,-2.59798 -2.08551,-2.87606c-2.27831,-1.43845 -5.15391,-1.62629 -7.59465,-2.76764c-5.39626,-2.52344 -7.16918,-9.10316 -4.00372,-14.24055c0.99157,-1.60927 1.84475,-2.32458 2.89378,-2.80889c0.11322,-0.23019 0.26463,-0.43821 0.44595,-0.61579z" fill="#000000" stroke="none" stroke-width="0.5" stroke-linecap="butt"/><path d="M376.63744,35.19071c0,-2.25 2.25,-2.25 2.25,-2.25h2c4.88119,0 9.52479,-0.53589 14.01146,-2.77121c1.18138,-0.58858 2.06519,-1.77754 3.33652,-2.13225c1.49395,-0.41681 3.10106,-0.08493 4.65202,-0.09654c5.29064,-0.03962 9.73169,0.93613 13.59099,4.65901c0,0 0.52901,0.52901 0.6719,1.28199c0.78981,-0.72879 1.98435,-1.32572 3.31063,-2.43102c0.82149,-0.68462 1.35703,-1.7486 2.3179,-2.21793c3.48377,-1.70162 7.39029,-1.34602 11.10857,-1.29205c1.21763,0.01767 2.49493,-0.28306 3.65202,0.09654c1.34882,0.44251 2.39738,1.52089 3.59606,2.28134c0,0 0.47858,0.31905 0.79048,0.8765c0.20348,0.09793 0.38939,0.22941 0.55244,0.40462c3.39142,3.64441 -1.56615,11.2262 -4.72995,12.66972c-1.47507,0.67302 -3.24007,0.13596 -4.86104,0.17127c-4.53724,0.09886 -14.13269,0.1525 -16.07873,-5.38896c-0.45303,-1.29005 -0.64804,-2.24881 -0.63795,-3.00044c-1.48208,1.12261 -2.8743,-0.26961 -2.8743,-0.26961c-2.82228,-2.97319 -6.45414,-3.30279 -10.40901,-3.34099c-1.1164,-0.01078 -2.27704,-0.41208 -3.34798,-0.09654c-1.04016,0.30647 -1.6943,1.3814 -2.66348,1.86775c-2.51663,1.2629 -6.85424,2.73871 -9.62813,3.19974c-0.22683,0.0377 -5.93031,0.02905 -6.36041,0.02905h-2c0,0 -2.25,0 -2.25,-2.25z" fill="#000000" stroke="none" stroke-width="0.5" stroke-linecap="butt"/><path d="M256.23655,29.50732c2.57175,-4.2449 8.44805,-3.56659 12.65085,-3.56659c0,0 2.25,0 2.25,2.25c0,2.25 -2.25,2.25 -2.25,2.25c-1.87989,0 -3.77731,-0.28574 -5.63959,-0.02905c-4.29681,0.59225 -3.10413,3.39026 -3.11041,6.77906c-0.00263,1.41817 -0.17036,2.84502 -0.01344,4.25448c0.28917,2.59727 1.95183,5.85326 0.84545,8.59858c-1.04453,2.59186 -5.0695,4.32647 -7.22098,5.22566c-4.32968,1.80956 -8.24595,2.17762 -12.86104,2.17127c-2.57622,-0.00354 -6.56979,0.26649 -8.59099,-1.65901c-1.24005,-1.18135 -0.97853,-3.28416 -1.54987,-4.89874c-0.51645,-1.45945 -1.14095,-2.87838 -1.71142,-4.31757c-0.47214,-3.88832 -0.95273,-7.773 0.89434,-11.48325c0.50953,-1.02352 1.56577,-1.66675 2.36696,-2.48242c1.85966,-1.89327 4.28251,-4.66464 6.93897,-5.56247c0.3899,-0.13178 7.46531,-0.09654 7.65202,-0.09654c0.8653,0 6.41073,-0.04432 6.86104,0.17127c1.04156,0.49865 1.74052,1.48135 2.48811,2.39532z" fill="#000000" stroke="none" stroke-width="0.5" stroke-linecap="butt"/><text transform="translate(18.93846,277.59763) scale(0.36822,0.5)" font-size="40" xml:space="preserve" fill="#000000" fill-rule="nonzero" stroke="none" stroke-width="1" stroke-linecap="butt" stroke-linejoin="miter" stroke-miterlimit="10" stroke-dasharray="" stroke-dashoffset="0" font-family="Sans Serif" font-weight="normal" text-anchor="start" style="mix-blend-mode: normal"><tspan x="0" dy="0">cool gaem</tspan><tspan x="0" dy="46.15px">by mtsyntho</tspan></text></g></g></svg>